<?xml version="1.0" encoding="UTF-8" standalone="no"?>
<svg
   version="1.1"
   width="200"
   height="50"
   id="svg55"
   sodipodi:docname="logo.svg"
   inkscape:version="1.1.2 (0a00cf5339, 2022-02-04)"
   xmlns:inkscape="http://www.inkscape.org/namespaces/inkscape"
   xmlns:sodipodi="http://sodipodi.sourceforge.net/DTD/sodipodi-0.dtd"
   xmlns="http://www.w3.org/2000/svg"
   xmlns:svg="http://www.w3.org/2000/svg">
  <defs
     id="defs59" />
  <sodipodi:namedview
     id="namedview57"
     pagecolor="#ffffff"
     bordercolor="#666666"
     borderopacity="1.0"
     inkscape:pageshadow="2"
     inkscape:pageopacity="0.0"
     inkscape:pagecheckerboard="0"
     showgrid="false"
     inkscape:zoom="3.7"
     inkscape:cx="199.86486"
     inkscape:cy="13.513514"
     inkscape:window-width="1920"
     inkscape:window-height="949"
     inkscape:window-x="0"
     inkscape:window-y="0"
     inkscape:window-maximized="1"
     inkscape:current-layer="svg55" />
  <path
     fill="#"
     d="M 16.199429,31.955882 V 20.35451 l -0.696083,1.740206 -3.596425,7.308864 -1.85622,0.116014 -3.5964262,-7.540892 -0.580068,-1.624192 v 11.601372 l 2.2042612,0.464055 v 1.392164 H 1.8137258 v -1.392164 l 1.972234,-0.464055 V 19.4264 l -1.972234,-0.464055 v -1.276151 l 5.220618,-0.116014 4.1996972,9.281098 4.385319,-9.165084 4.872577,-0.116014 v 1.392165 L 18.519703,19.4264 v 12.529482 l 1.972234,0.464055 v 1.392164 h -6.496769 v -1.392164 z m 21.31404,0.464055 v 1.276151 l -3.828453,0.116013 -0.232028,-1.624192 c -0.556865,0.487258 -2.389882,1.85622 -4.292508,1.85622 -2.5523,0 -3.712437,-1.600989 -3.712437,-4.153292 V 23.370866 L 23.47581,22.906811 v -1.27615 l 4.292506,-0.116014 v 8.144163 c 0,1.624192 0.580068,2.413086 2.088247,2.413086 1.972233,0 3.364398,-1.833017 3.364398,-1.833017 v -6.868013 l -1.972233,-0.464055 v -1.27615 l 4.292508,-0.116014 v 10.441235 z m 9.179006,0.116013 v 1.276151 h -6.42716 V 32.53595 l 1.972233,-0.580068 V 17.802208 l -1.972233,-0.464055 v -1.276151 l 4.338913,-0.116014 V 31.955882 Z M 56.869204,21.630661 v 1.740205 h -3.3644 v 7.448081 c 0,1.067327 0.51046,1.415368 1.16013,1.415368 0.55687,0 1.20655,-0.25523 1.80982,-0.580069 l 0.62647,1.229746 c -1.04412,0.76569 -2.08824,1.160137 -3.24838,1.160137 -1.392166,0 -2.668317,-0.765691 -2.668317,-3.364398 v -7.308865 h -2.320275 v -1.508178 l 2.320275,-0.232027 v -2.923546 l 2.320277,-0.464055 v 3.387601 z m 4.72407,-3.944467 c 0,-1.044124 0.69609,-1.624192 1.50818,-1.624192 0.92811,0 1.50818,0.464055 1.50818,1.624192 0,1.044124 -0.81209,1.624192 -1.50818,1.624192 -0.92811,0 -1.50818,-0.580068 -1.50818,-1.624192 z m 4.52454,14.849756 v 1.276151 h -6.03271 V 32.53595 l 1.97223,-0.580068 v -8.585016 l -1.97223,-0.464055 v -1.27615 l 4.2925,-0.116014 v 10.441235 z m 2.51982,-13.573605 v -1.276151 l 6.49677,-0.116014 v 1.392165 l -2.11145,0.440852 3.64283,11.276534 3.87485,-11.253331 -2.15785,-0.464055 v -1.276151 l 6.26474,-0.116014 v 1.392165 l -1.80981,0.464055 -5.15101,14.385701 h -2.32028 L 70.424244,19.4264 Z m 29.08696,9.04907 h -8.00495 c 0,2.552302 1.36896,4.176494 3.3644,4.176494 2.32027,0 3.89806,-1.276151 3.89806,-1.276151 l 0.8121,1.206543 c 0,0 -2.15786,1.925828 -4.94219,1.925828 -3.71244,0 -5.56866,-2.436288 -5.56866,-6.264741 0,-3.71244 2.32028,-6.496768 5.68468,-6.496768 3.36439,0 4.87257,1.972232 4.87257,5.452644 0,0.580069 -0.11601,1.229746 -0.11601,1.276151 z m -7.91214,-1.740206 h 5.56866 c 0,-1.740206 -0.67288,-3.178776 -2.5291,-3.178776 -1.85622,0 -2.90034,1.43857 -3.03956,3.178776 z m 15.420556,-4.756562 0.20882,1.6938 c 0.58007,-0.649676 1.92583,-1.925827 3.50362,-1.925827 1.16013,0 2.08824,0.348041 2.08824,0.348041 l -0.11601,3.364397 h -1.50818 l -0.34804,-1.740206 c -1.74021,0 -2.85394,1.136935 -3.3644,1.809814 v 6.891216 l 2.32028,0.580068 v 1.276151 h -6.61279 V 32.53595 l 1.97224,-0.580068 v -8.585016 l -1.97224,-0.464055 v -1.27615 z m 10.31594,8.585015 0.25523,1.995436 c 0,0 0.69608,0.208825 1.94903,0.208825 1.39216,0 2.62191,-0.394447 2.62191,-1.833017 0,-2.505896 -6.47357,-1.345759 -6.47357,-5.568659 0,-2.413085 1.85622,-3.619627 4.24611,-3.619627 1.83301,0 3.96766,0.696082 3.96766,0.696082 l -0.0696,3.13237 h -1.50818 l -0.37125,-1.809814 c 0,0 -0.71928,-0.278433 -1.87942,-0.278433 -1.18334,0 -2.06504,0.371244 -2.06504,1.554584 0,2.482694 6.47356,1.531381 6.47356,5.49905 0,2.668316 -2.32027,3.96767 -5.1046,3.96767 -2.13465,0 -3.66603,-0.51046 -3.66603,-0.51046 v -3.434007 z m 21.15162,-2.088247 h -8.00495 c 0,2.552302 1.36897,4.176494 3.3644,4.176494 2.32028,0 3.89806,-1.276151 3.89806,-1.276151 l 0.8121,1.206543 c 0,0 -2.15786,1.925828 -4.94219,1.925828 -3.71244,0 -5.56866,-2.436288 -5.56866,-6.264741 0,-3.71244 2.32028,-6.496768 5.68468,-6.496768 3.3644,0 4.87257,1.972232 4.87257,5.452644 0,0.580069 -0.11601,1.229746 -0.11601,1.276151 z m -7.91214,-1.740206 h 5.56866 c 0,-1.740206 -0.67288,-3.178776 -2.5291,-3.178776 -1.85622,0 -2.90034,1.43857 -3.03956,3.178776 z m 23.19347,-3.828452 -0.62648,-2.668316 c 0,0 -1.22974,-0.464055 -2.96995,-0.464055 -3.13237,0 -4.87257,2.320275 -4.87257,6.612782 0,4.176494 2.08824,6.032714 4.98859,6.032714 2.43629,0 4.64055,-1.85622 4.64055,-1.85622 l 0.92811,1.508179 c 0,0 -2.32028,2.436288 -5.80069,2.436288 -4.64055,0 -7.42488,-2.78433 -7.42488,-8.004947 0,-5.336631 3.01636,-8.701029 7.77292,-8.701029 2.5523,0 5.22062,1.160137 5.22062,1.160137 l -0.11602,3.944467 z m 9.36463,-6.496769 v 7.007229 c 0.71928,-0.603271 2.34347,-1.670597 4.06048,-1.670597 2.5523,0 3.71244,1.624191 3.71244,4.176493 v 6.496769 l 1.7402,0.580068 v 1.276151 h -5.56866 V 32.53595 l 1.50818,-0.556865 v -6.287944 c 0,-1.624193 -0.51046,-2.436289 -2.01864,-2.436289 -1.97223,0 -3.434,1.85622 -3.434,1.85622 v 6.84481 l 1.50818,0.580068 v 1.276151 h -5.80069 V 32.53595 l 1.97223,-0.580068 V 17.802208 l -1.97223,-0.464055 v -1.276151 z m 13.65713,9.165084 -0.11601,-2.900343 c 0,0 2.5523,-0.928109 4.52453,-0.928109 2.69152,0 4.29251,0.928109 4.29251,3.596424 v 7.076838 l 1.85622,0.464055 v 1.276151 l -3.59642,0.116013 -0.48726,-1.624192 c -0.78889,0.788894 -2.18106,1.85622 -3.80525,1.85622 -2.20426,0 -3.48041,-1.276151 -3.48041,-3.480412 0,-2.668316 2.08824,-3.596425 5.33663,-3.596425 h 1.85622 v -1.85622 c 0,-1.392165 -0.8121,-2.088247 -2.20426,-2.088247 -1.39217,0 -2.34348,0.348041 -2.34348,0.348041 l -0.32484,1.740206 z m 6.38076,3.364398 h -1.62419 c -2.32028,0 -3.20198,0.580069 -3.20198,1.972233 0,1.044124 0.64967,1.740206 1.6938,1.740206 1.7402,0 3.13237,-1.856219 3.13237,-1.856219 z m 14.93328,-6.844809 v 1.740205 h -3.36439 v 7.448081 c 0,1.067327 0.51046,1.415368 1.16013,1.415368 0.55687,0 1.20655,-0.25523 1.80982,-0.580069 l 0.62647,1.229746 c -1.04412,0.76569 -2.08824,1.160137 -3.24838,1.160137 -1.39217,0 -2.66832,-0.765691 -2.66832,-3.364398 v -7.308865 h -2.32027 v -1.508178 l 2.32027,-0.232027 v -2.923546 l 2.32028,-0.464055 v 3.387601 z"
     id="path51"
     style="stroke-width:1.763;stroke-miterlimit:4;stroke-dasharray:none" />
  <path
     fill="#"
     d=""
     id="path53" />
</svg>
